<svg width="16" height="16" viewBox="0 0 16 16" fill="none" xmlns="http://www.w3.org/2000/svg">
<path d="M8.12018 5.79688C6.68463 5.79688 5.54205 6.96875 5.54205 8.375C5.54205 9.81055 6.68463 10.9531 8.12018 10.9531C9.52643 10.9531 10.6983 9.81055 10.6983 8.375C10.6983 6.96875 9.52643 5.79688 8.12018 5.79688ZM8.12018 9.54688C7.44635 9.54688 6.9483 9.04883 6.9483 8.375C6.9483 7.73047 7.44635 7.20312 8.12018 7.20312C8.76471 7.20312 9.29205 7.73047 9.29205 8.375C9.29205 9.04883 8.76471 9.54688 8.12018 9.54688ZM15.1514 7.67188H13.6866C13.3643 5.15234 11.3428 3.13086 8.8233 2.80859V1.34375C8.8233 1.10938 8.58893 0.875 8.35455 0.875H7.8858C7.62213 0.875 7.41705 1.10938 7.41705 1.34375V2.80859C4.86823 3.13086 2.84674 5.15234 2.52448 7.67188H1.08893C0.825256 7.67188 0.620178 7.90625 0.620178 8.14062V8.60938C0.620178 8.87305 0.825256 9.07812 1.08893 9.07812H2.52448C2.84674 11.627 4.86823 13.6484 7.41705 13.9707V15.4062C7.41705 15.6699 7.62213 15.875 7.8858 15.875H8.35455C8.58893 15.875 8.8233 15.6699 8.8233 15.4062V13.9707C11.3428 13.6484 13.3643 11.627 13.6866 9.07812H15.1514C15.3858 9.07812 15.6202 8.87305 15.6202 8.60938V8.14062C15.6202 7.90625 15.3858 7.67188 15.1514 7.67188ZM8.12018 12.5938C5.77643 12.5938 3.90143 10.7188 3.90143 8.375C3.90143 6.06055 5.77643 4.15625 8.12018 4.15625C10.4346 4.15625 12.3389 6.06055 12.3389 8.375C12.3389 10.7188 10.4346 12.5938 8.12018 12.5938Z" fill="#22262A"/>
</svg>
